<!-- Generated by IcoMoon.io -->
<svg version="1.1" xmlns="http://www.w3.org/2000/svg" width="32" height="32" viewBox="0 0 32 32">
<title>features2</title>
<path fill="#212121" d="M31.299 15.302c-0.001-8.453-6.855-15.304-15.309-15.302s-15.304 6.856-15.302 15.309c0.002 6.788 4.422 12.544 10.542 14.546l0.108 0.031c0.061 0.019 0.123 0.029 0.187 0.029 0.12 0 0.238-0.032 0.342-0.094 0.135-0.080 0.236-0.207 0.283-0.357l3.865-12.251c1.054-0.004 1.906-0.859 1.906-1.913 0-1.056-0.856-1.913-1.913-1.913-0.303 0-0.59 0.071-0.845 0.196l0.011-0.005-5.106-5.107c-0.114-0.11-0.271-0.179-0.443-0.179-0.352 0-0.638 0.286-0.638 0.638 0 0.172 0.068 0.328 0.179 0.443l-0-0 5.104 5.11c-0.121 0.241-0.191 0.525-0.191 0.826 0 0.602 0.283 1.137 0.723 1.48l0.004 0.003-3.683 11.674c-7.278-2.681-11.005-10.755-8.324-18.034s10.755-11.005 18.034-8.324c7.278 2.681 11.005 10.755 8.324 18.033-1.345 3.582-4.004 6.407-7.375 7.939l-0.088 0.036-0.398-1.874c-0.063-0.291-0.318-0.506-0.624-0.506-0.164 0-0.313 0.062-0.426 0.163l0.001-0.001-3.837 3.426c-0.132 0.117-0.214 0.287-0.214 0.477 0 0.283 0.185 0.524 0.441 0.606l0.005 0.001 4.899 1.564c0.058 0.020 0.126 0.031 0.196 0.031 0.352 0 0.637-0.285 0.637-0.637 0-0.047-0.005-0.093-0.015-0.138l0.001 0.004-0.391-1.839c5.528-2.375 9.329-7.772 9.329-14.058 0-0.011 0-0.023-0-0.034v0.002zM15.994 14.665c0.352 0 0.638 0.286 0.638 0.638s-0.286 0.638-0.638 0.638v0c-0.352 0-0.638-0.286-0.638-0.638s0.286-0.638 0.638-0.638v0zM18.094 29.53l2.184-1.949 0.603 2.84-2.787-0.892z"></path>
<path fill="#2196f3" d="M15.356 3.185v1.276c0 0.352 0.286 0.638 0.638 0.638s0.638-0.286 0.638-0.638v0-1.276c0-0.352-0.286-0.638-0.638-0.638s-0.638 0.286-0.638 0.638v0zM3.876 14.665c-0.352 0-0.638 0.286-0.638 0.638s0.286 0.638 0.638 0.638h1.276c0.352 0 0.638-0.286 0.638-0.638s-0.286-0.638-0.638-0.638h-1.276zM28.111 15.941c0.352 0 0.638-0.286 0.638-0.638s-0.286-0.638-0.638-0.638h-1.276c-0.352 0-0.638 0.286-0.638 0.638s0.286 0.638 0.638 0.638h1.276z"></path>
</svg>
