<!-- Generated by IcoMoon.io -->
<svg version="1.1" xmlns="http://www.w3.org/2000/svg" width="32" height="32" viewBox="0 0 32 32">
<title>linkedin</title>
<path  d="M32.012 32.020h0.008v-11.745c0-5.744-1.238-10.17-7.952-10.17-3.229 0-5.395 1.771-6.281 3.452h-0.093v-2.915h-6.369v21.377h6.631v-10.584c0-2.787 0.528-5.483 3.98-5.483 3.401 0 3.45 3.181 3.45 5.661v10.408h6.625zM0.528 10.642h6.639v21.378h-6.639v-21.378zM3.846 0c-2.124 0-3.846 1.722-3.846 3.846v0c0 2.121 1.723 3.881 3.846 3.881 2.121 0 3.844-1.758 3.844-3.881s-1.721-3.844-3.844-3.846h-0z"></path>
</svg>
