<!-- Generated by IcoMoon.io -->
<svg version="1.1" xmlns="http://www.w3.org/2000/svg" width="32" height="32" viewBox="0 0 32 32">
<title>mail</title>
<path fill="#757575" d="M29.011 3.995h-26.010c-1.655 0-3.001 1.347-3.001 3.001v18.007c0 1.655 1.347 3.001 3.001 3.001h26.010c1.655 0 3.001-1.347 3.001-3.001v-18.007c0-1.655-1.347-3.001-3.001-3.001zM29.011 5.996c0.136 0 0.266 0.028 0.384 0.078l-13.389 11.605-13.389-11.605c0.113-0.049 0.245-0.078 0.384-0.078h26.010zM29.011 26.004h-26.010c-0.553 0-1-0.448-1-1v0-16.817l13.349 11.571c0.175 0.152 0.405 0.245 0.656 0.245s0.482-0.093 0.657-0.246l-0.001 0.001 13.349-11.571v16.817c0 0.552-0.448 1-1 1v0z"></path>
</svg>
