<!-- Generated by IcoMoon.io -->
<svg version="1.1" xmlns="http://www.w3.org/2000/svg" width="32" height="32" viewBox="0 0 32 32">
<title>twitter</title>
<path d="M32.020 6.082c-1.101 0.494-2.378 0.858-3.715 1.029l-0.068 0.007c1.361-0.817 2.383-2.079 2.875-3.582l0.013-0.046c-1.198 0.723-2.593 1.274-4.079 1.574l-0.084 0.014c-1.201-1.28-2.902-2.077-4.79-2.077-3.624 0-6.563 2.938-6.563 6.563 0 0.001 0 0.003 0 0.004v-0c0 0.52 0.043 1.021 0.152 1.497-5.458-0.266-10.286-2.882-13.53-6.865-0.564 0.95-0.899 2.093-0.903 3.315v0.001c0 2.273 1.172 4.289 2.915 5.455-1.092-0.030-2.109-0.326-2.996-0.824l0.033 0.017v0.072c0.003 3.167 2.238 5.811 5.216 6.444l0.043 0.008c-0.499 0.136-1.072 0.215-1.663 0.215-0.020 0-0.041-0-0.061-0l0.003 0c-0.419 0-0.844-0.024-1.242-0.112 0.85 2.6 3.263 4.512 6.133 4.572-2.216 1.747-5.049 2.802-8.127 2.802-0.004 0-0.008 0-0.013 0h0.001c-0.018 0-0.040 0-0.062 0-0.532 0-1.056-0.034-1.57-0.099l0.061 0.006c2.828 1.847 6.291 2.946 10.010 2.946 0.021 0 0.042-0 0.063-0h-0.003c12.080 0 18.684-10.006 18.684-18.68 0-0.288-0.010-0.57-0.024-0.849 1.3-0.936 2.392-2.065 3.26-3.357l0.030-0.047z"></path>
</svg>
